<svg xmlns="http://www.w3.org/2000/svg" xmlns:xlink="http://www.w3.org/1999/xlink" width="208.14" height="80.402" viewBox="0 0 208.14 80.402"><defs><linearGradient id="a" x1="-33.581" y1="17.428" x2="-32.766" y2="17.428" gradientUnits="objectBoundingBox"><stop offset="0" stop-color="#699d41"/><stop offset="1" stop-color="#699d41" stop-opacity="0"/></linearGradient><linearGradient id="b" x1="-33.572" y1="17.447" x2="-32.757" y2="17.447" xlink:href="#a"/><linearGradient id="c" x1="45.165" y1="49.697" x2="45.98" y2="49.697" xlink:href="#a"/><linearGradient id="d" x1="45.104" y1="49.715" x2="45.918" y2="49.715" xlink:href="#a"/></defs><g transform="translate(0 -9.987)"><g transform="translate(0 9.987)"><g transform="translate(29.439 19.341)"><path d="M756.445,459.3H749.6V435.392h9.71c6.887,0,10.763,4.078,10.763,9.386s-3.876,9.351-10.763,9.351h-2.861Zm2.522-10.582c3.086,0,4.215-1.617,4.215-3.937s-1.129-3.972-4.215-3.972h-2.522v7.909Z" transform="translate(-749.595 -434.786)" fill="#253a1b"/><path d="M840.866,459.3h-7.414l-3.576-5.484h-2.559V459.3h-6.85V435.392h9.71c6.887,0,10.763,4.078,10.763,9.386a8.277,8.277,0,0,1-4.629,7.734Zm-11.027-10.582c3.086,0,4.215-1.617,4.215-3.937s-1.129-3.972-4.215-3.972h-2.521v7.909Z" transform="translate(-795.329 -434.786)" fill="#253a1b"/><path d="M891.873,435.392h6.849V459.3h-6.849Z" transform="translate(-841.407 -434.786)" fill="#253a1b"/><path d="M935.031,459.544a.24.24,0,0,1-.451,0l-12.043-24.152h7.3l5.231,11.144,5.081-11.144h6.962Z" transform="translate(-861.194 -434.786)" fill="#253a1b"/><path d="M987.167,458.08h-6.7l12.456-24.327c.113-.246.339-.246.452,0L1005.8,458.08h-7.075l-.979-2.039h-9.634Zm5.682-12.374-2.559,5.554h5.194Z" transform="translate(-898.577 -433.569)" fill="#253a1b"/><path d="M1055.146,440.771h-6.775v-5.379h20.4v5.379h-6.774V459.3h-6.849Z" transform="translate(-942.395 -434.786)" fill="#253a1b"/><path d="M1118.82,435.392h17.952v5.379h-11.1v5.554h9.258v5.1h-9.258v2.5H1137.3V459.3H1118.82Z" transform="translate(-987.856 -434.786)" fill="#253a1b"/></g><g transform="translate(185.319)"><path d="M1214.5,385.772a10.446,10.446,0,0,0-1.438-5.537,10.759,10.759,0,0,0-1.111-1.555,10.039,10.039,0,0,0-.983-.906,10.5,10.5,0,0,0-5.774-2.259,10.352,10.352,0,0,1,3.485,1.83,9.961,9.961,0,0,1,.983.906,10.749,10.749,0,0,1,1.111,1.555,10.45,10.45,0,0,1,1.438,5.537c-.09,4.8-3.3,9.735-8.726,12.534a18.262,18.262,0,0,1-10.364,1.978,17.865,17.865,0,0,0,12.653-1.55C1211.2,395.507,1214.412,390.574,1214.5,385.772Z" transform="translate(-1191.683 -375.479)" fill="url(#a)"/><path d="M1211.147,385.7a10.451,10.451,0,0,0-1.438-5.537,10.8,10.8,0,0,0-1.111-1.555,9.982,9.982,0,0,0-.983-.906,10.736,10.736,0,0,0-11.9-.915,10.126,10.126,0,0,0-2.466,1.961,9.147,9.147,0,0,0,1.116,13.471,10.285,10.285,0,0,0,1.752,1.133,11.447,11.447,0,0,0,3.7-7.888,10.216,10.216,0,0,1,.157,1.108A10.775,10.775,0,0,1,1197.7,394a16.034,16.034,0,0,1-8.633,5.578,17.721,17.721,0,0,0,13.357-1.345C1207.845,395.435,1211.057,390.5,1211.147,385.7Z" transform="translate(-1189.064 -375.408)" fill="#b0d135"/><path d="M1212.427,385.772a10.449,10.449,0,0,0-1.438-5.537,10.827,10.827,0,0,0-1.111-1.555,10.04,10.04,0,0,0-.983-.906,10.5,10.5,0,0,0-5.774-2.259,10.352,10.352,0,0,1,3.484,1.83,9.973,9.973,0,0,1,.983.906,10.778,10.778,0,0,1,1.111,1.555,10.451,10.451,0,0,1,1.438,5.537c-.09,4.8-3.3,9.735-8.726,12.534a18.263,18.263,0,0,1-10.364,1.978,17.865,17.865,0,0,0,12.653-1.55C1209.125,395.507,1212.337,390.574,1212.427,385.772Z" transform="translate(-1190.344 -375.479)" fill="url(#b)"/></g><g transform="translate(0 0)"><path d="M666.6,390.033a10.449,10.449,0,0,0,1.438,5.537,10.788,10.788,0,0,0,1.111,1.555,10.033,10.033,0,0,0,.983.906,10.5,10.5,0,0,0,5.774,2.259,10.355,10.355,0,0,1-3.485-1.83,10.05,10.05,0,0,1-.983-.906A10.826,10.826,0,0,1,670.327,396a10.449,10.449,0,0,1-1.438-5.537c.09-4.8,3.3-9.735,8.726-12.534a18.261,18.261,0,0,1,10.364-1.978,17.865,17.865,0,0,0-12.654,1.55C669.9,380.3,666.689,385.231,666.6,390.033Z" transform="translate(-666.597 -375.41)" fill="url(#c)"/><path d="M668.673,390.031a10.45,10.45,0,0,0,1.438,5.537,10.805,10.805,0,0,0,1.111,1.555,10.028,10.028,0,0,0,.983.906,10.736,10.736,0,0,0,11.9.915,10.126,10.126,0,0,0,1.464-1.01,9.954,9.954,0,0,0,1-.951,9.147,9.147,0,0,0-1.115-13.471,10.276,10.276,0,0,0-1.752-1.133,11.446,11.446,0,0,0-3.7,7.888,10.187,10.187,0,0,1-.157-1.108,10.774,10.774,0,0,1,2.279-7.43,16.034,16.034,0,0,1,8.633-5.578A17.719,17.719,0,0,0,677.4,377.5C671.976,380.3,668.763,385.229,668.673,390.031Z" transform="translate(-667.936 -375.408)" fill="#b0d135"/><path d="M668.673,390.033a10.451,10.451,0,0,0,1.438,5.537,10.805,10.805,0,0,0,1.111,1.555,10.028,10.028,0,0,0,.983.906,10.5,10.5,0,0,0,5.774,2.259,10.354,10.354,0,0,1-3.485-1.83,9.983,9.983,0,0,1-.983-.906A10.787,10.787,0,0,1,672.4,396a10.454,10.454,0,0,1-1.438-5.537c.09-4.8,3.3-9.735,8.726-12.534a18.262,18.262,0,0,1,10.364-1.978A17.865,17.865,0,0,0,677.4,377.5C671.976,380.3,668.763,385.231,668.673,390.033Z" transform="translate(-667.936 -375.41)" fill="url(#d)"/></g><g transform="translate(91.206 40.213)"><path d="M940.41,542.877a1.042,1.042,0,0,1,.471-.355.569.569,0,0,1,.452.017.415.415,0,0,1,.217.372,1.135,1.135,0,0,1-.271.676q-.182.27-.978,1.2t-1.989,2.163q-1.193,1.235-2.641,2.6a34.615,34.615,0,0,1-2.948,2.5,20.93,20.93,0,0,1-2.93,1.876,5.7,5.7,0,0,1-2.588.744,3.7,3.7,0,0,1-1.736-.541,3.979,3.979,0,0,1-1.195-1.234,4.43,4.43,0,0,1-.542-2.417,7.792,7.792,0,0,1,.651-3.058,14.488,14.488,0,0,1,1.682-2.94,20.316,20.316,0,0,1,2.3-2.619,27.1,27.1,0,0,1,2.478-2.129,13.8,13.8,0,0,1,2.26-1.42,4.167,4.167,0,0,1,1.665-.507,2.435,2.435,0,0,1,.8.152,2.054,2.054,0,0,1,.814.558,3.356,3.356,0,0,1,.65,1.149,5.817,5.817,0,0,1,.272,1.96,3.5,3.5,0,0,1-.58,1.775,11.5,11.5,0,0,1-1.483,1.926,21.879,21.879,0,0,1-2.008,1.876,26.16,26.16,0,0,1-2.17,1.622,16.2,16.2,0,0,1-1.954,1.132,3.519,3.519,0,0,1-1.357.423,4.88,4.88,0,0,0-.434,1.149,1.265,1.265,0,0,0,.091.778q.162.338.886.338a5.447,5.447,0,0,0,2.461-.9,26.7,26.7,0,0,0,3.309-2.3,38.15,38.15,0,0,0,3.456-3.143A28.463,28.463,0,0,0,940.41,542.877ZM934.4,542a1.191,1.191,0,0,0-.615.3,6.307,6.307,0,0,0-.85.811q-.453.507-.978,1.149t-1.03,1.285q-1.193,1.589-2.569,3.549a16.137,16.137,0,0,0,3.183-2.247,16.753,16.753,0,0,0,2.135-2.315,5.592,5.592,0,0,0,.976-1.808Q934.839,542,934.4,542Z" transform="translate(-923.732 -524.015)" fill="#253a1b"/><path d="M969.315,537.807a2.171,2.171,0,0,1,1.447.558,4.588,4.588,0,0,1,1.031,1.234,3.834,3.834,0,0,1,.471,1.233c.06.372-.007.558-.2.558a5.068,5.068,0,0,0-2.479.848,19.4,19.4,0,0,0-2.894,2.136,35.655,35.655,0,0,0-2.822,2.78,26.715,26.715,0,0,0-2.242,2.779,9.372,9.372,0,0,0-1.176,2.136q-.29.847.361.847a2.306,2.306,0,0,0,.922-.574q.706-.574,1.629-1.453t1.918-1.927q.994-1.047,1.808-1.961a20.411,20.411,0,0,0,1.3-1.589q.487-.675.415-.845-.145-.236.236-.236a2.061,2.061,0,0,1,.9.271,3.047,3.047,0,0,1,.976.845,2.332,2.332,0,0,1,.452,1.487,4.648,4.648,0,0,1-.506,1.977q-.507,1.065-1.049,1.961t-.832,1.487q-.291.592.144.592A3.423,3.423,0,0,0,970.69,552a34.108,34.108,0,0,0,2.532-2.417q1.41-1.47,2.93-3.244t2.713-3.465a1.041,1.041,0,0,1,.471-.355.569.569,0,0,1,.452.017.415.415,0,0,1,.217.372,1.133,1.133,0,0,1-.271.676q-.216.27-.922,1.2t-1.719,2.163q-1.012,1.235-2.242,2.6t-2.46,2.515a17.512,17.512,0,0,1-2.352,1.876,3.757,3.757,0,0,1-1.954.729,2.037,2.037,0,0,1-1.085-.338,3.945,3.945,0,0,1-.941-.811,4.927,4.927,0,0,1-.65-.98,1.949,1.949,0,0,1-.253-.811,2.64,2.64,0,0,1,.09-.659c.06-.236.127-.457.2-.659.1-.248.205-.5.326-.744q-1.3,1.386-2.461,2.5-.975.947-1.953,1.724a2.886,2.886,0,0,1-1.483.777,2.449,2.449,0,0,1-1.086-.287,4.4,4.4,0,0,1-1.1-.794,4.138,4.138,0,0,1-.868-1.234,3.775,3.775,0,0,1-.344-1.639,5.339,5.339,0,0,1,.669-2.315,18.124,18.124,0,0,1,1.754-2.771,28.058,28.058,0,0,1,2.478-2.839,29.943,29.943,0,0,1,2.822-2.518,17.027,17.027,0,0,1,2.767-1.792A5.36,5.36,0,0,1,969.315,537.807Z" transform="translate(-944.859 -524.015)" fill="#253a1b"/><path d="M1029.528,545.457q.251-.406.542-.2a.62.62,0,0,1,.217.271,3.646,3.646,0,0,1-.977,1.217,4.9,4.9,0,0,1-1.465.828,6.561,6.561,0,0,1-2.333.355,8.291,8.291,0,0,1-2.986-.608,9.073,9.073,0,0,1-2.894-1.825,9.5,9.5,0,0,1-2.171-3.058,10.193,10.193,0,0,1-.849-4.31,12.875,12.875,0,0,1,.524-3.6,24.921,24.921,0,0,1,1.284-3.464,28.848,28.848,0,0,1,1.61-3.042q.85-1.385,1.5-2.3a15.417,15.417,0,0,1-2.1.676,11.347,11.347,0,0,1-2.857.338,3.132,3.132,0,0,1-.868-.135,2.05,2.05,0,0,1-.905-.591,3.539,3.539,0,0,1-.723-1.3,7.036,7.036,0,0,1-.29-2.231,9.222,9.222,0,0,1,.705-3.65,10.655,10.655,0,0,1,1.754-2.856,8.829,8.829,0,0,1,2.225-1.876,4.345,4.345,0,0,1,2.117-.676,2.711,2.711,0,0,1,1.736.574,1.953,1.953,0,0,1,.723,1.622,3.763,3.763,0,0,1-.217,1.166,11.345,11.345,0,0,1-.578,1.4q-.363.744-.815,1.5t-.922,1.471q-1.121,1.69-2.5,3.514,1.338-.641,2.5-1.216l1.881-.913q.9-.439,1.195-.609.36-.2.723-.422a.719.719,0,0,1,.832.118q.219.169.76.609a5.759,5.759,0,0,1,.976,1.014,2.953,2.953,0,0,1,.561,1.233,1.457,1.457,0,0,1-.488,1.3q-.616.676-1.719,2.1a27.614,27.614,0,0,0-2.17,3.3,25.461,25.461,0,0,0-1.846,4.055,12.952,12.952,0,0,0-.777,4.377,9.653,9.653,0,0,0,.579,3.616,6.474,6.474,0,0,0,1.41,2.231,4.7,4.7,0,0,0,1.81,1.132,5.736,5.736,0,0,0,1.772.321,4.731,4.731,0,0,0,2.425-.49A3.256,3.256,0,0,0,1029.528,545.457Zm-12.988-23.118a3,3,0,0,0,.09.794,2.167,2.167,0,0,0,.236.558,2.368,2.368,0,0,0,.325.473q.8-1.352,1.556-2.569t1.248-2.163a7.887,7.887,0,0,0,.633-1.5q.144-.558-.326-.558a1.834,1.834,0,0,0-1.1.541,8.632,8.632,0,0,0-1.23,1.319,9.374,9.374,0,0,0-1.013,1.638A3.511,3.511,0,0,0,1016.54,522.339Z" transform="translate(-981.846 -507.735)" fill="#253a1b"/><path d="M1069.964,507.523a.841.841,0,0,1,0,.692.694.694,0,0,1-.325.287,1.209,1.209,0,0,1-.58.068,1.492,1.492,0,0,0-.416-.878,4.506,4.506,0,0,0-1.23-.98,8.423,8.423,0,0,0-1.972-.794,10.07,10.07,0,0,0-2.677-.321h-1.139c-.374,0-.741.012-1.1.034q-1.123,1.893-2.5,4.072l-2.75,4.36q-1.375,2.18-2.6,4.191t-2.008,3.566a11.291,11.291,0,0,0-.978,2.484q-.2.93.453.929a3.952,3.952,0,0,0,1.61-.946,34.976,34.976,0,0,0,2.731-2.417q1.519-1.471,3.13-3.244a36.784,36.784,0,0,0,2.8-3.465.845.845,0,0,1,.453-.354.558.558,0,0,1,.452.017.421.421,0,0,1,.2.371,1.116,1.116,0,0,1-.271.676q-.181.272-.922,1.2t-1.827,2.164q-1.084,1.234-2.387,2.6t-2.588,2.518a18.744,18.744,0,0,1-2.46,1.893,3.967,3.967,0,0,1-2.008.744,3,3,0,0,1-1.627-.389,2.882,2.882,0,0,1-.959-.963,3.5,3.5,0,0,1-.453-1.268,8.507,8.507,0,0,1-.108-1.3,4.821,4.821,0,0,1,.4-1.605,24.579,24.579,0,0,1,1.086-2.366q.686-1.335,1.61-2.924t1.935-3.295q1.012-1.706,2.081-3.482t2.079-3.464q-.94.067-1.953.068h-2.1a11.1,11.1,0,0,1-2.568-.254,6.665,6.665,0,0,1-1.756-.659,3.774,3.774,0,0,1-1.1-.913,4.532,4.532,0,0,1-.615-1.014q-.326-.879-.018-1.082t.777.169a8.152,8.152,0,0,0,2.135,1.1,9.4,9.4,0,0,0,3.22.49q1.628,0,3.02-.085t2.334-.186q1.375-2.4,2.225-4.225a7.407,7.407,0,0,0,.849-2.67q0-.371.543-.338a2.5,2.5,0,0,1,1.212.49,4.382,4.382,0,0,1,1.211,1.318,3.946,3.946,0,0,1,.543,2.146,3.7,3.7,0,0,1-.326,1.251,16.083,16.083,0,0,1-.94,1.893h1.048a9.958,9.958,0,0,1,2.948.389,7.928,7.928,0,0,1,2.117.98,4.992,4.992,0,0,1,1.356,1.318A5.633,5.633,0,0,1,1069.964,507.523Z" transform="translate(-1001.879 -496.333)" fill="#253a1b"/><path d="M1087.681,533.328a2.514,2.514,0,0,1-1.52-.473,3.642,3.642,0,0,1-1.049-1.183,5.887,5.887,0,0,1-.6-1.555,6.925,6.925,0,0,1-.2-1.588,2.825,2.825,0,0,1,.217-.947,11.2,11.2,0,0,1,.6-1.284q.38-.71.832-1.47t.959-1.538q1.158-1.757,2.605-3.785-3.366,2.873-6.006,5.441-1.121,1.082-2.188,2.214t-1.917,2.18a15.14,15.14,0,0,0-1.357,1.926,3.145,3.145,0,0,0-.507,1.487.457.457,0,0,1-.488.523,1.857,1.857,0,0,1-1.049-.338,4.069,4.069,0,0,1-1.049-1,2.389,2.389,0,0,1-.489-1.487,4.831,4.831,0,0,1,.6-1.876q.6-1.234,1.574-2.856t2.225-3.515q1.248-1.892,2.569-3.853t2.567-3.87q1.248-1.909,2.225-3.566t1.574-2.94a5.2,5.2,0,0,0,.6-1.994q0-.236.434-.118a2.714,2.714,0,0,1,.976.574,4.363,4.363,0,0,1,.978,1.234,3.693,3.693,0,0,1,.434,1.825,3.925,3.925,0,0,1-.4,1.453,22.659,22.659,0,0,1-1.049,2.062q-.651,1.149-1.483,2.417t-1.7,2.518q-2.028,2.94-4.6,6.286,2.461-2.162,4.486-3.853.867-.71,1.737-1.4t1.628-1.234q.76-.541,1.339-.879a2,2,0,0,1,.868-.338,1.382,1.382,0,0,1,.923.321,2.347,2.347,0,0,1,.615.845,4.816,4.816,0,0,1,.344,1.149,7.14,7.14,0,0,1,.108,1.234,3.463,3.463,0,0,1-.632,1.419q-.634,1.015-1.5,2.3t-1.792,2.653a24.545,24.545,0,0,0-1.5,2.5,5.539,5.539,0,0,0-.651,1.875q-.072.744.8.744a3.682,3.682,0,0,0,1.556-.946,35.528,35.528,0,0,0,2.622-2.417q1.467-1.471,3.04-3.244a40.275,40.275,0,0,0,2.767-3.465,1.045,1.045,0,0,1,.471-.354.521.521,0,0,1,.434.017.423.423,0,0,1,.2.371,1.128,1.128,0,0,1-.272.676q-.181.272-.9,1.2t-1.773,2.164q-1.049,1.233-2.315,2.6t-2.532,2.518a19.47,19.47,0,0,1-2.405,1.892A3.794,3.794,0,0,1,1087.681,533.328Z" transform="translate(-1021.007 -502.67)" fill="#253a1b"/></g></g></g></svg>